<?xml version="1.0" encoding="UTF-8" standalone="no"?><!DOCTYPE svg PUBLIC "-//W3C//DTD SVG 1.1//EN" "http://www.w3.org/Graphics/SVG/1.1/DTD/svg11.dtd"><svg width="400px" height="400px" version="1.1" xmlns="http://www.w3.org/2000/svg" xmlns:xlink="http://www.w3.org/1999/xlink" xml:space="preserve" xmlns:serif="http://www.serif.com/" style="fill-rule:evenodd;clip-rule:evenodd;stroke-linejoin:round;stroke-miterlimit:2;"><g transform="matrix(6,0,0,1,-360,-40)"><rect x="80" y="40" width="40" height="40"/></g><g transform="matrix(1,0,0,9,40,-360)"><rect x="280" y="40" width="40" height="40"/></g><g transform="matrix(2,0,0,1,0,-40)"><rect x="40" y="80" width="40" height="40"/></g><g transform="matrix(3,0,0,1,120,120)"><rect x="40" y="80" width="40" height="40"/></g><g transform="matrix(2,0,0,1,-40,200)"><rect x="40" y="80" width="40" height="40"/></g><g transform="matrix(2,0,0,1,40,80)"><rect x="40" y="80" width="40" height="40"/></g><g transform="matrix(4,0,0,1,-640,-40)"><rect x="200" y="80" width="40" height="40" style="fill:white;"/></g><g transform="matrix(1,0,0,2,40,-120)"><rect x="240" y="80" width="40" height="40" style="fill:white;"/></g><g transform="matrix(2,0,0,1,40,-40)"><rect x="0" y="120" width="40" height="40"/></g><g transform="matrix(1,0,0,1,40,-40)"><rect x="80" y="120" width="40" height="40" style="fill:white;"/></g><g transform="matrix(1,0,0,4,40,-520)"><rect x="40" y="160" width="40" height="40" style="fill:white;"/></g><g transform="matrix(3,0,0,2,-440,-240)"><rect x="200" y="160" width="40" height="40"/></g><g transform="matrix(2,0,0,3,-200,-360)"><rect x="240" y="160" width="40" height="40"/></g><g transform="matrix(6,0,0,1,-1800,-40)"><rect x="320" y="160" width="40" height="40"/></g><g transform="matrix(1,0,0,3,40,-520)"><rect x="120" y="200" width="40" height="40"/></g><g transform="matrix(1,0,0,4,40,-840)"><rect x="80" y="240" width="40" height="40"/></g><g transform="matrix(1,0,0,2,40,-280)"><rect x="200" y="240" width="40" height="40"/></g><g transform="matrix(1,0,0,2,-80,-480)"><rect x="200" y="240" width="40" height="40"/></g><g transform="matrix(1,0,0,2,-120,-440)"><rect x="200" y="240" width="40" height="40"/></g><g transform="matrix(4,0,0,1,-200,-40)"><rect x="80" y="280" width="40" height="40"/></g><g transform="matrix(1,0,0,1,40,-40)"><rect x="240" y="280" width="40" height="40" style="fill:white;"/></g><g transform="matrix(1,0,0,6,40,-1840)"><rect x="0" y="320" width="40" height="40"/></g><g transform="matrix(4,0,0,1,-680,-40)"><rect x="200" y="320" width="40" height="40" style="fill:white;"/></g><g transform="matrix(2,0,0,2,-200,-360)"><rect x="240" y="320" width="40" height="40"/></g><g transform="matrix(1,0,0,2,40,-440)"><rect x="40" y="360" width="40" height="40"/></g><g transform="matrix(7,0,0,1,-15320,-40)"><rect x="2200" y="360" width="40" height="40"/></g><g transform="matrix(5,0,0,2,-1080,-480)"><rect x="240" y="400" width="40" height="40"/></g></svg>