<?xml version="1.0" encoding="UTF-8" standalone="no"?><!DOCTYPE svg PUBLIC "-//W3C//DTD SVG 1.1//EN" "http://www.w3.org/Graphics/SVG/1.1/DTD/svg11.dtd"><svg width="2360px" height="440px" version="1.1" xmlns="http://www.w3.org/2000/svg" xmlns:xlink="http://www.w3.org/1999/xlink" xml:space="preserve" xmlns:serif="http://www.serif.com/" style="fill-rule:evenodd;clip-rule:evenodd;stroke-linejoin:round;stroke-miterlimit:2;"><g transform="matrix(3,0,0,1,-1280,0)"><rect x="640" y="0" width="40" height="40"/></g><g transform="matrix(6,0,0,1,-400,0)"><rect x="80" y="40" width="40" height="40"/></g><g transform="matrix(1,0,0,9,0,-320)"><rect x="280" y="40" width="40" height="40"/></g><g transform="matrix(2,0,0,1,-600,0)"><rect x="600" y="40" width="40" height="40"/></g><rect x="680" y="40" width="40" height="40" style="fill:white;"/><g transform="matrix(2,0,0,1,-40,0)"><rect x="40" y="80" width="40" height="40"/></g><g transform="matrix(3,0,0,1,80,160)"><rect x="40" y="80" width="40" height="40"/></g><g transform="matrix(2,0,0,1,-80,240)"><rect x="40" y="80" width="40" height="40"/></g><g transform="matrix(2,0,0,1,0,120)"><rect x="40" y="80" width="40" height="40"/></g><g transform="matrix(4,0,0,1,-680,0)"><rect x="200" y="80" width="40" height="40" style="fill:white;"/></g><g transform="matrix(1,0,0,2,0,-80)"><rect x="240" y="80" width="40" height="40" style="fill:white;"/></g><g transform="matrix(1,0,0,3,0,-200)"><rect x="600" y="80" width="40" height="40"/></g><g transform="matrix(1,0,0,7,0,-480)"><rect x="640" y="80" width="40" height="40" style="fill:white;"/></g><g transform="matrix(2,0,0,1,0,0)"><rect x="0" y="120" width="40" height="40"/></g><rect x="80" y="120" width="40" height="40" style="fill:white;"/><g transform="matrix(7,0,0,1,-2160,0)"><rect x="360" y="120" width="40" height="40"/></g><g transform="matrix(42,0,0,1,-96760,0)"><rect x="2320" y="120" width="40" height="40"/></g><g transform="matrix(1,0,0,4,0,-480)"><rect x="40" y="160" width="40" height="40" style="fill:white;"/></g><g transform="matrix(3,0,0,2,-480,-200)"><rect x="200" y="160" width="40" height="40"/></g><g transform="matrix(2,0,0,3,-240,-320)"><rect x="240" y="160" width="40" height="40"/></g><g transform="matrix(7,0,0,1,-2160,0)"><rect x="320" y="160" width="40" height="40"/></g><g transform="matrix(3,0,0,1,-720,0)"><rect x="360" y="160" width="40" height="40" style="fill:white;"/></g><g transform="matrix(1,0,0,7,0,-1000)"><rect x="480" y="160" width="40" height="40"/></g><g transform="matrix(2,0,0,2,-560,-200)"><rect x="520" y="160" width="40" height="40"/></g><g transform="matrix(3,0,0,1,-1240,0)"><rect x="600" y="160" width="40" height="40" style="fill:white;"/></g><g transform="matrix(3,0,0,2,-1600,-200)"><rect x="760" y="160" width="40" height="40"/></g><g transform="matrix(3,0,0,1,-1840,0)"><rect x="880" y="160" width="40" height="40" style="fill:white;"/></g><g transform="matrix(1,0,0,5,0,-640)"><rect x="960" y="160" width="40" height="40" style="fill:white;"/></g><g transform="matrix(1,0,0,2,0,-200)"><rect x="1000" y="160" width="40" height="40"/></g><g transform="matrix(2,0,0,1,-1040,0)"><rect x="1040" y="160" width="40" height="40" style="fill:white;"/></g><g transform="matrix(1,0,0,5,0,-640)"><rect x="1080" y="160" width="40" height="40" style="fill:white;"/></g><g transform="matrix(1,0,0,2,0,-200)"><rect x="1120" y="160" width="40" height="40"/></g><g transform="matrix(2,0,0,1,-1160,0)"><rect x="1160" y="160" width="40" height="40" style="fill:white;"/></g><g transform="matrix(1,0,0,5,0,-640)"><rect x="1200" y="160" width="40" height="40" style="fill:white;"/></g><g transform="matrix(1,0,0,8,0,-1160)"><rect x="1240" y="160" width="40" height="40"/></g><g transform="matrix(2,0,0,2,-1320,-200)"><rect x="1280" y="160" width="40" height="40"/></g><g transform="matrix(3,0,0,1,-2760,0)"><rect x="1360" y="160" width="40" height="40" style="fill:white;"/></g><g transform="matrix(1,0,0,5,0,-640)"><rect x="1400" y="160" width="40" height="40" style="fill:white;"/></g><g transform="matrix(1,0,0,8,0,-1160)"><rect x="1440" y="160" width="40" height="40"/></g><g transform="matrix(1,0,0,5,0,-640)"><rect x="1480" y="160" width="40" height="40" style="fill:white;"/></g><g transform="matrix(1,0,0,2,0,-200)"><rect x="1520" y="160" width="40" height="40"/></g><g transform="matrix(2,0,0,1,-1560,0)"><rect x="1560" y="160" width="40" height="40" style="fill:white;"/></g><g transform="matrix(1,0,0,5,0,-640)"><rect x="1600" y="160" width="40" height="40" style="fill:white;"/></g><g transform="matrix(1,0,0,8,0,-1160)"><rect x="1640" y="160" width="40" height="40"/></g><g transform="matrix(2,0,0,2,-1720,-200)"><rect x="1680" y="160" width="40" height="40"/></g><g transform="matrix(3,0,0,1,-3680,0)"><rect x="1800" y="160" width="40" height="40" style="fill:white;"/></g><g transform="matrix(1,0,0,7,0,-1000)"><rect x="1840" y="160" width="40" height="40"/></g><g transform="matrix(2,0,0,2,-1920,-200)"><rect x="1880" y="160" width="40" height="40"/></g><g transform="matrix(3,0,0,1,-4080,0)"><rect x="2000" y="160" width="40" height="40" style="fill:white;"/></g><g transform="matrix(2,0,0,4,-2120,-520)"><rect x="2080" y="160" width="40" height="40"/></g><rect x="2120" y="160" width="40" height="40" style="fill:white;"/><g transform="matrix(2,0,0,1,-2240,0)"><rect x="2200" y="160" width="40" height="40"/></g><g transform="matrix(2,0,0,1,-2320,0)"><rect x="2280" y="160" width="40" height="40" style="fill:white;"/></g><g transform="matrix(1,0,0,3,0,-480)"><rect x="120" y="200" width="40" height="40"/></g><g transform="matrix(1,0,0,4,0,-640)"><rect x="440" y="200" width="40" height="40" style="fill:white;"/></g><g transform="matrix(1,0,0,3,0,-400)"><rect x="520" y="200" width="40" height="40" style="fill:white;"/></g><g transform="matrix(2,0,0,3,-560,-400)"><rect x="560" y="200" width="40" height="40"/></g><g transform="matrix(1,0,0,4,0,-640)"><rect x="880" y="200" width="40" height="40" style="fill:white;"/></g><g transform="matrix(2,0,0,1,-1040,0)"><rect x="1000" y="200" width="40" height="40" style="fill:white;"/></g><g transform="matrix(1,0,0,5,0,-800)"><rect x="1040" y="200" width="40" height="40"/></g><g transform="matrix(2,0,0,1,-1160,0)"><rect x="1120" y="200" width="40" height="40" style="fill:white;"/></g><g transform="matrix(1,0,0,5,0,-800)"><rect x="1160" y="200" width="40" height="40"/></g><rect x="1280" y="200" width="40" height="40" style="fill:white;"/><g transform="matrix(2,0,0,1,-1400,0)"><rect x="1360" y="200" width="40" height="40"/></g><g transform="matrix(2,0,0,1,-1560,0)"><rect x="1520" y="200" width="40" height="40" style="fill:white;"/></g><g transform="matrix(1,0,0,5,0,-800)"><rect x="1560" y="200" width="40" height="40"/></g><g transform="matrix(1,0,0,3,0,-400)"><rect x="1680" y="200" width="40" height="40" style="fill:white;"/></g><g transform="matrix(1,0,0,2,0,-240)"><rect x="1800" y="200" width="40" height="40" style="fill:white;"/></g><g transform="matrix(1,0,0,3,0,-400)"><rect x="1880" y="200" width="40" height="40" style="fill:white;"/></g><g transform="matrix(1,0,0,2,40,-120)"><rect x="1880" y="200" width="40" height="40" style="fill:white;"/></g><g transform="matrix(2,0,0,1,-2000,0)"><rect x="1960" y="200" width="40" height="40"/></g><g transform="matrix(1,0,0,2,0,-240)"><rect x="2000" y="200" width="40" height="40" style="fill:white;"/></g><g transform="matrix(3,0,0,2,-4320,-200)"><rect x="2120" y="200" width="40" height="40"/></g><g transform="matrix(1,0,0,4,0,-600)"><rect x="2160" y="200" width="40" height="40" style="fill:white;"/></g><g transform="matrix(2,0,0,1,-2240,0)"><rect x="2200" y="200" width="40" height="40" style="fill:white;"/></g><g transform="matrix(1,0,0,3,0,-400)"><rect x="2240" y="200" width="40" height="40"/></g><g transform="matrix(1,0,0,2,0,-240)"><rect x="2280" y="200" width="40" height="40" style="fill:white;"/></g><g transform="matrix(1,0,0,4,0,-800)"><rect x="80" y="240" width="40" height="40"/></g><g transform="matrix(1,0,0,2,0,-240)"><rect x="200" y="240" width="40" height="40"/></g><g transform="matrix(1,0,0,2,-120,-440)"><rect x="200" y="240" width="40" height="40"/></g><g transform="matrix(1,0,0,2,440,-480)"><rect x="200" y="240" width="40" height="40"/></g><g transform="matrix(1,0,0,2,-160,-400)"><rect x="200" y="240" width="40" height="40"/></g><g transform="matrix(2,0,0,1,-1320,0)"><rect x="1280" y="240" width="40" height="40"/></g><g transform="matrix(3,0,0,1,-2760,0)"><rect x="1360" y="240" width="40" height="40" style="fill:white;"/></g><g transform="matrix(4,0,0,1,-5480,0)"><rect x="1800" y="240" width="40" height="40"/></g><g transform="matrix(1,0,0,2,0,-280)"><rect x="1920" y="240" width="40" height="40"/></g><g transform="matrix(1,0,0,2,80,-240)"><rect x="1920" y="240" width="40" height="40"/></g><rect x="1960" y="240" width="40" height="40" style="fill:white;"/><g transform="matrix(4,0,0,1,-6480,0)"><rect x="2120" y="240" width="40" height="40"/></g><g transform="matrix(4,0,0,1,-240,0)"><rect x="80" y="280" width="40" height="40"/></g><rect x="240" y="280" width="40" height="40" style="fill:white;"/><g transform="matrix(1,0,0,4,0,-920)"><rect x="320" y="280" width="40" height="40" style="fill:white;"/></g><g transform="matrix(2,0,0,3,-440,-640)"><rect x="400" y="280" width="40" height="40"/></g><g transform="matrix(2,0,0,6,-760,-1600)"><rect x="720" y="280" width="40" height="40"/></g><g transform="matrix(1,0,0,4,0,-920)"><rect x="760" y="280" width="40" height="40" style="fill:white;"/></g><g transform="matrix(2,0,0,3,-880,-640)"><rect x="840" y="280" width="40" height="40"/></g><g transform="matrix(1,0,0,2,0,-280)"><rect x="1280" y="280" width="40" height="40" style="fill:white;"/></g><g transform="matrix(2,0,0,1,-1400,0)"><rect x="1360" y="280" width="40" height="40"/></g><g transform="matrix(2,0,0,3,-1800,-640)"><rect x="1760" y="280" width="40" height="40"/></g><rect x="1800" y="280" width="40" height="40" style="fill:white;"/><g transform="matrix(2,0,0,1,-1960,0)"><rect x="1920" y="280" width="40" height="40" style="fill:white;"/></g><g transform="matrix(2,0,0,1,-2040,0)"><rect x="2000" y="280" width="40" height="40"/></g><rect x="2040" y="280" width="40" height="40" style="fill:white;"/><g transform="matrix(2,0,0,5,-2160,-1200)"><rect x="2120" y="280" width="40" height="40"/></g><g transform="matrix(4,0,0,2,-6920,-320)"><rect x="2280" y="280" width="40" height="40"/></g><g transform="matrix(1,0,0,4,0,-960)"><rect x="2320" y="280" width="40" height="40"/></g><g transform="matrix(1,0,0,6,0,-1800)"><rect x="0" y="320" width="40" height="40"/></g><g transform="matrix(4,0,0,1,-720,0)"><rect x="200" y="320" width="40" height="40" style="fill:white;"/></g><g transform="matrix(2,0,0,2,-240,-320)"><rect x="240" y="320" width="40" height="40"/></g><g transform="matrix(3,0,0,1,-880,0)"><rect x="400" y="320" width="40" height="40" style="fill:white;"/></g><g transform="matrix(3,0,0,2,-880,-320)"><rect x="440" y="320" width="40" height="40"/></g><g transform="matrix(4,0,0,1,-2160,0)"><rect x="680" y="320" width="40" height="40" style="fill:white;"/></g><g transform="matrix(1,0,0,11,0,-3520)"><rect x="720" y="320" width="40" height="40"/></g><g transform="matrix(3,0,0,1,-1760,0)"><rect x="840" y="320" width="40" height="40" style="fill:white;"/></g><g transform="matrix(2,0,0,2,-880,-320)"><rect x="880" y="320" width="40" height="40"/></g><g transform="matrix(1,0,0,7,0,-2120)"><rect x="920" y="320" width="40" height="40"/></g><g transform="matrix(2,0,0,4,-1080,-1040)"><rect x="1040" y="320" width="40" height="40"/></g><g transform="matrix(2,0,0,4,-1200,-1040)"><rect x="1160" y="320" width="40" height="40"/></g><g transform="matrix(4,0,0,1,-4160,0)"><rect x="1360" y="320" width="40" height="40" style="fill:white;"/></g><g transform="matrix(2,0,0,4,-1600,-1040)"><rect x="1560" y="320" width="40" height="40"/></g><g transform="matrix(2,0,0,2,-1720,-320)"><rect x="1680" y="320" width="40" height="40"/></g><g transform="matrix(2,0,0,1,-1800,0)"><rect x="1760" y="320" width="40" height="40" style="fill:white;"/></g><g transform="matrix(3,0,0,2,-3840,-320)"><rect x="1880" y="320" width="40" height="40"/></g><g transform="matrix(3,0,0,1,-4080,0)"><rect x="2000" y="320" width="40" height="40" style="fill:white;"/></g><g transform="matrix(3,0,0,2,-4320,-320)"><rect x="2120" y="320" width="40" height="40"/></g><g transform="matrix(1,0,0,5,0,-1360)"><rect x="2200" y="320" width="40" height="40"/></g><g transform="matrix(1,0,0,2,0,-400)"><rect x="40" y="360" width="40" height="40"/></g><g transform="matrix(55,0,0,1,-120960,0)"><rect x="2200" y="360" width="40" height="40"/></g><g transform="matrix(5,0,0,2,-1120,-440)"><rect x="240" y="400" width="40" height="40"/></g><g transform="matrix(4,0,0,2,-1440,-440)"><rect x="440" y="400" width="40" height="40"/></g><g transform="matrix(9,0,0,2,-7360,-440)"><rect x="880" y="400" width="40" height="40"/></g><g transform="matrix(2,0,0,2,-1040,-440)"><rect x="1000" y="400" width="40" height="40"/></g><g transform="matrix(2,0,0,2,-1160,-440)"><rect x="1120" y="400" width="40" height="40"/></g><g transform="matrix(9,0,0,2,-12480,-440)"><rect x="1520" y="400" width="40" height="40"/></g><g transform="matrix(2,0,0,2,-1680,-440)"><rect x="1640" y="400" width="40" height="40"/></g><g transform="matrix(3,0,0,2,-3680,-440)"><rect x="1800" y="400" width="40" height="40"/></g><g transform="matrix(4,0,0,2,-6240,-440)"><rect x="2040" y="400" width="40" height="40"/></g><g transform="matrix(2,0,0,2,-2240,-440)"><rect x="2200" y="400" width="40" height="40"/></g></svg>